<?xml version="1.0" encoding="iso-8859-1"?>
<!-- Uploaded to: SVG Repo, www.svgrepo.com, Generator: SVG Repo Mixer Tools -->
<svg height="800px" width="800px" version="1.1" id="Layer_1" xmlns="http://www.w3.org/2000/svg" xmlns:xlink="http://www.w3.org/1999/xlink" 
	 viewBox="0 0 511.882 511.882" xml:space="preserve">
<path style="fill:#F6BB42;" d="M470.595,223.948C443.054,131.446,357.386,63.985,255.941,63.985
	c-101.446,0-187.129,67.461-214.67,159.963h-9.279v63.985c0,123.69,100.258,223.949,223.949,223.949
	c123.676,0,223.949-100.259,223.949-223.949v-63.985H470.595z"/>
<g>
	<path style="fill:#E8AA3D;" d="M117.16,463.706c6.795,5.374,13.918,10.356,21.323,14.934v-80.075H117.16
		C117.16,398.565,117.16,463.706,117.16,463.706z"/>
	<path style="fill:#E8AA3D;" d="M63.985,403.344c6.295,10.466,13.45,20.37,21.323,29.618v-81.7l-21.323-21.995V403.344z"/>
	<path style="fill:#E8AA3D;" d="M181.286,499.12c6.952,2.452,14.075,4.576,21.323,6.357v-74.358h-21.323V499.12z"/>
	<path style="fill:#E8AA3D;" d="M245.272,511.632c3.53,0.156,7.092,0.25,10.669,0.25c3.578,0,7.123-0.094,10.654-0.25v-70.391
		h-21.324v70.391H245.272z"/>
	<path style="fill:#E8AA3D;" d="M330.58,499.12v-68.001h-21.322v74.358C316.521,503.696,323.629,501.572,330.58,499.12z"/>
	<path style="fill:#E8AA3D;" d="M394.566,463.815v-65.251h-21.324v80.169C380.646,474.171,387.771,469.189,394.566,463.815z"/>
	<path style="fill:#E8AA3D;" d="M447.898,403.344v-76.295l-21.34,24.213v81.7C434.447,423.714,441.586,413.81,447.898,403.344z"/>
</g>
<path style="fill:#FFCE54;" d="M479.89,223.948c0,123.69-100.273,223.949-223.949,223.949
	c-123.69,0-223.949-100.259-223.949-223.949C31.992,100.265,132.251,0,255.941,0C379.617,0,479.89,100.265,479.89,223.948z"/>
<path style="fill:#E8AA3D;" d="M303.929,319.926h-21.338V117.308c0-5.89-4.764-10.669-10.654-10.669
	c-1.938,0-3.732,0.522-5.295,1.413v-0.008l-74.655,42.662h0.016c-3.218,1.844-5.39,5.296-5.39,9.256
	c0,5.89,4.78,10.662,10.669,10.662c1.921,0,3.734-0.516,5.296-1.406l0,0l26.697-15.254v165.962h-21.323l0,0
	c-5.889,0-10.669,4.779-10.669,10.653c0,5.905,4.78,10.685,10.669,10.685l0,0h95.978c5.891,0,10.654-4.779,10.654-10.685
	C314.584,324.706,309.82,319.926,303.929,319.926z M250.598,141.779l10.669-6.1v184.247h-10.669L250.598,141.779L250.598,141.779z"
	/>
</svg>